# xmcd CD database file
#
# Track frame offsets:
#	150
#	19460
#	32058
#	41442
#	58760
#	69123
#	89201
#	104472
#	116814
#
# Disc length: 1689 seconds
#
# Revision: 0
# Processed by: cddbd v1.5.2PL0 Copyright (c) Steve Scherf et al.
# Submitted via: CDex 1.70beta2
#
DISCID=7d069709
DTITLE=Gabriel Grätzer - El Blues Lleva Tiempo
DYEAR=2012
DGENRE=Blues
TTITLE0=Highway 49 Blues (Joseph Lee Williams)
TTITLE1=I Can't Dance - I Got ant's in My Pants (Charlie Gaines - Clarence Williams)
TTITLE2=Grinning in Your Face (Eddie James House)
TTITLE3=Maggie Campbell Blues (Tommy Johnson)
TTITLE4=Rag, Mama, Rag (Fulton Allen)
TTITLE5=St. James Infirmary Blues (Irving Mills)
TTITLE6=Harbor of Love (The Stanley Brothers)
TTITLE7=My Red (John Davis)
TTITLE8=Dark Was The Night, Cold Was The Ground (Willie Johnson)
EXTD=YEAR: 2012
EXTT0=
EXTT1=
EXTT2=
EXTT3=
EXTT4=
EXTT5=
EXTT6=
EXTT7=
EXTT8=
PLAYORDER=
